<svg width="30" height="7" viewBox="0 0 30 7" fill="none" xmlns="http://www.w3.org/2000/svg">
<g clip-path="url(#clip0_1_417)">
<path d="M27 6.125C28.6569 6.125 30 4.78185 30 3.125C30 1.46815 28.6569 0.125 27 0.125C25.3431 0.125 24 1.46815 24 3.125C24 4.78185 25.3431 6.125 27 6.125Z" fill="#5C8692"/>
<path d="M15 6.125C16.6569 6.125 18 4.78185 18 3.125C18 1.46815 16.6569 0.125 15 0.125C13.3431 0.125 12 1.46815 12 3.125C12 4.78185 13.3431 6.125 15 6.125Z" fill="#5C8692"/>
<path d="M3 6.125C4.65685 6.125 6 4.78185 6 3.125C6 1.46815 4.65685 0.125 3 0.125C1.34315 0.125 0 1.46815 0 3.125C0 4.78185 1.34315 6.125 3 6.125Z" fill="#5C8692"/>
</g>
<defs>
<clipPath id="clip0_1_417">
<rect width="30" height="6" fill="white" transform="translate(0 0.125)"/>
</clipPath>
</defs>
</svg>
